<svg id="Layer_1" data-name="Layer 1" xmlns="http://www.w3.org/2000/svg" viewBox="0 0 45.97 17.14"><defs><style>.cls-1,.cls-3{fill:#1c4586;}.cls-1,.cls-2{fill-rule:evenodd;}.cls-2{fill:#fbba00;}.cls-4{fill:#666;}.cls-5{fill:none;}</style></defs><g id="Layer_1-2" data-name="Layer_1"><g id="_2694148816560" data-name=" 2694148816560"><path class="cls-1" d="M13,7.74a7.51,7.51,0,0,0-4.84,2.44A7.49,7.49,0,0,0,3.31,7.74c2.29,1.64,3.85,4.72,4.83,8.92C9.13,12.46,10.68,9.38,13,7.74Z"/><path class="cls-1" d="M8.14,6.33A1.34,1.34,0,1,1,6.81,7.67,1.33,1.33,0,0,1,8.14,6.33Z"/><path class="cls-2" d="M16.07,4.9c-2.29,1.52-2.42.1-4.23,1.37a5.2,5.2,0,0,1,.62,1c1.2-1.2,2.84-.23,3.61-2.41ZM2.62,4l2.25,1.5a4.72,4.72,0,0,0-.66.68Zm-2.4.38c2.45,1.22,1.3,2.05,3.29,3a5.19,5.19,0,0,1,.6-1C2.47,5.9,2.49,4,.22,4.41ZM3.67,1.15C5.19,3.44,3.77,3.58,5,5.39a5.16,5.16,0,0,1,1-.61C4.87,3.57,5.85,1.93,3.67,1.15ZM5.93,2,7.14,4.43l-.27.09a3.74,3.74,0,0,0-.57.17l-.08,0L5.93,2ZM8.28.06c.18,2.75-1.12,2.16-.92,4.36.21,0,.42,0,.64,0a5.12,5.12,0,0,1,.56,0C8.12,2.76,9.78,1.82,8.28.06ZM9.81,1.88,9.65,4.6l-.94-.21,1.1-2.51Zm3-.45c-1.21,2.47-2,1.31-3,3.31a5.19,5.19,0,0,1,1.05.6c.44-1.65,2.34-1.63,1.92-3.91Zm.41,2.31L11.73,6,11,5.35l2.2-1.61Z"/><path class="cls-3" d="M16.8,13.26a2.35,2.35,0,0,1-1.68-.61l.56-1.05a1.44,1.44,0,0,0,1,.41.9.9,0,0,0,.69-.27A1,1,0,0,0,17.6,11V8h1.3v3a2.66,2.66,0,0,1-.17,1,1.66,1.66,0,0,1-.47.69,2,2,0,0,1-.66.38,2.58,2.58,0,0,1-.8.12Zm7.32-.08H22.78l-.29-.94H20.85l-.31.94H19.2L21.08,8h1.21Zm-2.95-2.07h1l-.49-1.53Zm5.74,2.15a2.68,2.68,0,0,1-2-.75,2.55,2.55,0,0,1-.76-1.9A2.55,2.55,0,0,1,25,8.69a2.77,2.77,0,0,1,2-.75,3.28,3.28,0,0,1,1.13.2,2.68,2.68,0,0,1,.9.55l-.83,1a1.76,1.76,0,0,0-1.21-.47,1.35,1.35,0,0,0-1.42,1.4,1.41,1.41,0,0,0,.39,1,1.33,1.33,0,0,0,1,.42,2,2,0,0,0,.64-.11,1.62,1.62,0,0,0,.52-.3v-.45H26.93V10h2.34v2.23a3.29,3.29,0,0,1-2.36,1Zm7.39-.08H32.81l-.91-1.71h-.51v1.71h-1.3V8h2.14a1.87,1.87,0,0,1,1.41.49,1.64,1.64,0,0,1,.48,1.22,1.73,1.73,0,0,1-.24.9,1.54,1.54,0,0,1-.7.63l1.12,1.91Zm-2.08-4h-.83v1.11h.78a.52.52,0,0,0,.55-.27.6.6,0,0,0,0-.58A.48.48,0,0,0,32.22,9.22Zm2.7,2V8h1.31v3.13a.82.82,0,0,0,.22.63A.77.77,0,0,0,37,12a.78.78,0,0,0,.59-.22.85.85,0,0,0,.22-.63V8h1.32v3.15a2.38,2.38,0,0,1-.18,1,1.59,1.59,0,0,1-.49.66,2,2,0,0,1-.67.35,2.56,2.56,0,0,1-.79.12,2.45,2.45,0,0,1-.78-.12,2,2,0,0,1-.68-.35,1.59,1.59,0,0,1-.49-.66,2.35,2.35,0,0,1-.18-1Zm6.23,2V9.28H39.72V8h4.17V9.28H42.46v3.9Zm3.34,0V8H45.8v5.15Z"/><path class="cls-4" d="M16.23,16.44H16l-.41-.64h-.22v.64h-.22V14.85h.54A.5.5,0,0,1,16,15a.44.44,0,0,1,.13.33.47.47,0,0,1-.37.46Zm-.57-1.38h-.33v.53h.29a.36.36,0,0,0,.24-.07.28.28,0,0,0,.08-.2.25.25,0,0,0-.07-.19.29.29,0,0,0-.21-.08Zm2,1.38h-1V14.85h1v.21h-.77v.47h.71v.21h-.71v.5h.77v.21Zm.74,0h-.22V14.85h.22v.67h.8v-.67h.21v1.59h-.21v-.71h-.8Zm2.84,0H21L20.88,16h-.61l-.16.41h-.24l.65-1.59h.11Zm-.47-.61-.23-.6-.23.6Zm1.75-.26a.4.4,0,0,1,.22.15.5.5,0,0,1,.08.27.44.44,0,0,1-.13.32.48.48,0,0,1-.36.13H21.7V14.85h.63a.42.42,0,0,1,.32.12.38.38,0,0,1,.12.28.36.36,0,0,1-.06.2A.28.28,0,0,1,22.55,15.57Zm-.25-.52h-.39v.44h.38a.29.29,0,0,0,.19-.06.26.26,0,0,0,.07-.17.18.18,0,0,0-.07-.15.28.28,0,0,0-.18-.06Zm-.39,1.19h.41a.29.29,0,0,0,.22-.08.25.25,0,0,0,.09-.19.25.25,0,0,0-.09-.2.32.32,0,0,0-.23-.08h-.4v.55Zm1.44.2V14.85h.21v1.59Zm1.89,0H24.17V14.85h.21v1.38h.86v.21Zm.43,0V14.85h.21v1.59Zm1.11,0V15.06h-.47v-.21h1.16v.21H27v1.38Zm2.2,0h-.23L28.58,16H28l-.16.41h-.24l.65-1.59h.11Zm-.47-.61-.23-.6-.23.6Zm1,.61V15.06h-.47v-.21h1.16v.21h-.47v1.38Zm1.12,0V14.85h.21v1.59Zm.71-.78a.84.84,0,0,1,.83-.84.77.77,0,0,1,.58.25.78.78,0,0,1,.24.58.8.8,0,0,1-.24.58.82.82,0,0,1-.59.24.82.82,0,0,1-.82-.81Zm1.43,0a.59.59,0,0,0-.18-.44.56.56,0,0,0-.42-.18.58.58,0,0,0-.43.18.65.65,0,0,0,0,.88.58.58,0,0,0,.43.17.57.57,0,0,0,.42-.17.6.6,0,0,0,.18-.44Zm1.79.34V14.85h.21v1.59h-.11l-1-1.13v1.13h-.21V14.85h.1Zm2.59.48a.82.82,0,0,1-.58-.23.79.79,0,0,1-.24-.59.75.75,0,0,1,.25-.59.78.78,0,0,1,.58-.24.77.77,0,0,1,.4.1.71.71,0,0,1,.29.25l-.16.13a.64.64,0,0,0-1-.1.64.64,0,0,0-.17.45.62.62,0,0,0,.17.44.61.61,0,0,0,.43.17.73.73,0,0,0,.3-.07.91.91,0,0,0,.24-.2l.15.13a.75.75,0,0,1-.3.25.86.86,0,0,1-.39.09Zm2.15,0h-1V14.85h1v.2h-.78v.48h.72v.21h-.72v.5h.78v.2ZM40.94,16V14.85h.21v1.59H41l-.95-1.13v1.13h-.22V14.85H40Zm1.11.45V15.06h-.47v-.21h1.16v.21h-.47v1.38Zm2.12,0h-1V14.85h1v.2h-.78v.48h.72v.21h-.72v.5h.78v.2Zm1.63,0h-.26l-.42-.64H44.9v.64h-.21V14.85h.54a.5.5,0,0,1,.37.14.47.47,0,0,1-.24.79Zm-.57-1.39H44.9v.54h.29a.36.36,0,0,0,.24-.07.28.28,0,0,0,.08-.2.29.29,0,0,0-.07-.19.29.29,0,0,0-.21-.08Z"/></g><rect class="cls-5" x="-0.62" y="-3.39" width="47.25" height="23.51"/></g></svg>